# xmcd CD database file
#
# Track frame offsets:
#	150
#	18943
#	35942
#	54735
#
# Disc length: 956 seconds
#
# Revision: 0
# Processed by: cddbd v1.5.1PL2 Copyright (c) Steve Scherf et al.
# Submitted via: CDex 1.51
#
DISCID=3103ba04
DTITLE=SAKURA - Oh we Oh
DYEAR=2005
DGENRE=Pop
TTITLE0=Oh we Oh
TTITLE1=Best Of My Love
TTITLE2=Oh we Oh (Instrumental)
TTITLE3=Best Of My Love (Instrumental)
EXTD=YEAR: 2005/12/07
EXTT0=
EXTT1=
EXTT2=
EXTT3=
PLAYORDER=
